<?xml version="1.0" standalone="no"?>
<!DOCTYPE svg PUBLIC "-//W3C//DTD SVG 20010904//EN"
 "http://www.w3.org/TR/2001/REC-SVG-20010904/DTD/svg10.dtd">
<svg version="1.0" xmlns="http://www.w3.org/2000/svg"
 width="512.000000pt" height="512.000000pt" viewBox="0 0 512.000000 512.000000"
 preserveAspectRatio="xMidYMid meet">
<metadata>
Created by potrace 1.11, written by Peter Selinger 2001-2013
</metadata>
<g transform="translate(0.000000,512.000000) scale(0.100000,-0.100000)"
fill="#000000" stroke="none">
<path d="M2808 4251 c-8 -11 -13 -40 -13 -65 1 -26 -3 -46 -9 -46 -7 0 -8 -3
-1 -8 14 -10 15 -93 1 -85 -7 5 -7 2 1 -8 6 -8 12 -18 12 -24 4 -41 19 -50 50
-31 7 5 16 4 20 -1 3 -5 19 -9 34 -8 15 1 30 -2 33 -7 3 -4 10 -6 15 -3 5 4 9
2 9 -2 0 -5 10 -9 21 -10 12 -1 28 -11 36 -23 8 -11 18 -18 23 -15 12 7 69
-53 82 -84 6 -17 5 -27 -3 -31 -8 -6 -7 -9 2 -12 12 -5 12 -9 1 -28 -8 -12 -9
-19 -3 -15 7 4 10 -3 9 -19 -1 -15 -5 -26 -9 -26 -4 0 -6 -8 -4 -17 1 -10 -3
-24 -9 -32 -9 -12 -8 -13 3 -7 9 6 12 5 9 -5 -3 -8 -12 -13 -19 -11 -11 3 -12
1 -1 -9 14 -15 17 -43 3 -34 -6 3 -8 -6 -5 -20 3 -20 1 -23 -13 -19 -17 5 -17
5 0 -6 9 -6 17 -15 17 -20 0 -6 -8 -10 -17 -10 -11 0 -14 -3 -7 -8 12 -7 13
-47 2 -58 -4 -3 -4 -13 -1 -22 4 -9 2 -13 -4 -9 -7 5 -9 -1 -5 -15 4 -16 2
-19 -9 -13 -12 8 -12 6 0 -8 8 -11 10 -22 5 -29 -5 -7 -9 -29 -9 -48 1 -19 -4
-38 -10 -42 -7 -5 -7 -8 1 -8 13 0 12 -38 0 -59 -7 -10 -5 -12 4 -6 8 5 11 3
8 -6 -3 -8 -11 -13 -17 -11 -7 1 -10 -2 -6 -8 3 -6 9 -8 13 -6 4 2 7 -11 8
-29 0 -22 -3 -32 -10 -28 -8 5 -8 3 0 -8 6 -8 10 -29 8 -46 -1 -18 3 -33 8
-33 7 0 6 -5 -1 -13 -8 -10 -7 -17 1 -25 10 -10 9 -17 -1 -35 -13 -20 -13 -21
1 -9 13 10 16 9 21 -8 3 -13 1 -18 -6 -13 -7 3 -4 -3 6 -15 11 -11 16 -26 12
-31 -3 -6 0 -11 7 -11 11 0 10 -2 0 -9 -11 -7 -10 -9 3 -15 9 -3 14 -10 11
-15 -3 -5 1 -11 9 -15 8 -3 15 -12 15 -20 0 -9 9 -24 21 -35 12 -11 18 -24 14
-30 -3 -7 -1 -10 6 -9 7 2 18 -8 26 -22 7 -14 13 -22 13 -18 0 4 11 -4 25 -18
14 -14 22 -30 19 -36 -4 -6 -3 -9 2 -5 5 3 18 -1 29 -9 13 -10 15 -14 4 -14
-12 0 -12 -2 1 -10 13 -8 12 -10 -3 -10 -10 0 -15 -4 -12 -10 6 -10 -6 -14
-35 -11 -13 2 -13 1 0 -8 12 -9 12 -11 -3 -17 -9 -3 -14 -11 -10 -17 4 -6 0
-8 -10 -4 -9 3 -16 3 -16 -1 3 -20 -2 -33 -11 -27 -5 3 -10 1 -10 -6 0 -6 -8
-18 -17 -26 -10 -8 -12 -12 -5 -8 13 7 -45 -84 -61 -96 -5 -3 -8 -9 -8 -13 1
-3 1 -7 0 -8 0 -2 -3 -14 -5 -28 -3 -13 -11 -28 -19 -33 -11 -5 -12 -13 -6
-25 9 -19 4 -43 -13 -54 -8 -6 -8 -8 1 -8 15 0 4 -40 -11 -40 -7 0 -6 -3 2 -9
14 -8 13 -46 -2 -70 -6 -9 -5 -12 0 -8 11 6 11 -33 1 -50 -4 -7 -4 -14 1 -17
4 -2 8 -36 7 -75 0 -39 3 -71 7 -71 5 0 8 -9 8 -21 0 -13 -4 -18 -12 -13 -9 6
-9 3 1 -9 7 -9 11 -24 7 -32 -4 -11 -2 -14 6 -9 7 5 9 0 6 -14 -4 -13 -1 -22
5 -22 8 0 8 -3 2 -8 -13 -9 -19 -35 -6 -28 5 3 11 -5 13 -19 5 -22 3 -24 -11
-13 -9 7 -6 1 6 -12 16 -19 19 -29 12 -42 -6 -11 -6 -18 -1 -18 6 0 9 -16 8
-36 -1 -20 2 -38 6 -40 13 -8 9 -26 -4 -19 -7 4 -6 1 2 -7 17 -14 21 -84 6
-107 -5 -8 -4 -16 4 -21 9 -6 7 -13 -8 -28 -11 -11 -18 -23 -15 -26 4 -3 1 -6
-5 -6 -7 0 -12 -7 -12 -15 0 -8 -9 -15 -20 -15 -10 0 -24 -8 -29 -17 -6 -10
-11 -14 -11 -10 0 5 -7 1 -16 -8 -13 -12 -19 -13 -30 -4 -12 10 -13 9 -8 -6 5
-12 4 -16 -4 -11 -6 3 -13 2 -16 -2 -3 -5 -18 -8 -33 -8 -15 1 -36 -2 -45 -7
-11 -4 -18 -4 -18 2 0 7 -9 7 -25 -1 -15 -7 -25 -20 -25 -32 0 -17 -2 -18 -10
-6 -6 9 -10 10 -10 3 0 -6 5 -15 11 -19 8 -4 7 -9 -2 -15 -8 -5 -9 -9 -3 -9
14 0 14 -62 -1 -72 -7 -5 -6 -8 1 -8 8 0 11 -19 10 -55 -1 -33 2 -56 8 -57 6
0 17 -2 24 -2 7 -1 18 -8 23 -16 9 -12 10 -12 5 4 -6 16 -2 18 22 13 16 -3 34
-1 39 4 6 6 33 11 61 12 27 1 48 5 45 9 -4 8 28 12 56 9 8 -2 10 2 5 10 -5 9
-2 10 9 6 10 -3 17 -2 17 4 0 6 5 7 10 4 6 -3 10 -1 10 5 0 6 5 8 10 5 6 -3
10 -1 10 6 0 7 3 10 6 6 4 -3 13 1 21 9 8 8 19 12 24 8 5 -3 8 0 7 7 -2 7 2
13 8 14 7 0 24 12 39 27 15 15 32 25 38 21 5 -3 7 -1 4 4 -8 13 31 65 44 58 5
-4 6 0 3 8 -3 8 2 20 11 27 8 7 15 19 15 26 0 8 5 14 10 14 6 0 10 7 10 16 0
9 5 12 12 8 7 -4 8 -3 4 5 -4 6 -3 17 2 24 11 13 12 17 12 43 0 9 5 12 12 8 7
-5 8 -3 3 6 -4 7 -2 16 6 21 9 6 10 9 2 9 -7 0 -10 10 -6 28 3 15 6 32 7 38 1
7 8 20 16 30 14 17 13 18 -1 6 -15 -11 -17 -9 -15 20 0 18 6 36 11 40 6 5 5 8
-2 8 -15 0 -13 50 2 50 5 0 2 5 -8 11 -14 8 -15 14 -6 31 8 15 8 19 0 14 -6
-4 -11 -1 -11 8 0 8 6 17 13 19 7 3 5 6 -5 6 -10 1 -18 6 -18 12 0 5 6 7 13 3
9 -6 9 -5 0 7 -6 8 -10 27 -9 41 2 15 0 25 -4 23 -12 -8 -17 54 -6 65 7 7 7
11 1 10 -22 -5 -27 1 -14 17 8 9 9 14 3 10 -7 -4 -15 0 -18 9 -9 22 -8 26 5
18 8 -5 8 -1 0 13 -6 11 -7 23 -4 27 3 3 1 6 -5 6 -7 0 -12 7 -12 16 0 9 5 12
13 8 6 -4 3 2 -7 14 -14 17 -16 22 -5 22 11 0 11 2 -1 10 -8 5 -11 10 -7 10 4
0 3 9 -3 21 -9 15 -8 24 2 37 7 9 8 13 2 9 -16 -9 -16 133 -1 152 9 12 9 13 0
7 -7 -4 -13 -3 -13 3 0 5 5 13 11 17 8 4 7 9 -2 15 -11 7 -9 9 6 10 11 0 15 3
9 5 -13 6 -7 44 7 44 5 0 8 6 7 13 -2 6 3 11 10 9 6 -1 11 1 11 5 -4 23 3 35
15 30 10 -4 13 -1 9 9 -3 8 1 14 11 14 9 0 16 4 16 10 0 5 23 16 52 25 60 17
69 18 48 5 -9 -6 -10 -10 -3 -10 6 0 14 4 17 8 6 10 67 9 83 -1 9 -6 11 -3 6
10 -5 14 -3 16 7 6 24 -22 46 4 41 49 -3 32 -1 39 10 32 12 -7 12 -5 0 9 -7 9
-11 24 -7 32 3 8 0 15 -7 15 -7 0 -8 3 -2 8 6 4 9 18 8 32 0 14 -1 40 -2 58
-1 22 -6 32 -17 32 -9 0 -12 5 -8 13 6 10 4 10 -7 0 -7 -7 -17 -13 -22 -13 -4
0 -5 6 -1 13 6 10 4 10 -7 0 -16 -16 -43 -17 -34 -2 4 6 -2 5 -13 -2 -17 -11
-24 -10 -38 2 -16 12 -17 12 -9 -1 6 -12 5 -12 -5 -3 -7 6 -19 9 -26 6 -8 -3
-14 0 -14 7 0 6 -4 9 -10 5 -11 -7 -90 41 -90 56 0 5 -9 20 -20 32 -11 12 -18
27 -16 34 3 7 1 13 -5 13 -6 0 -9 7 -6 15 4 8 2 17 -3 20 -15 9 -12 37 3 29
10 -6 10 -4 0 7 -7 7 -13 26 -13 42 0 19 4 26 13 22 6 -4 3 1 -7 9 -11 9 -15
16 -8 16 6 0 9 7 6 15 -4 8 -3 23 1 33 12 27 14 43 5 37 -5 -3 -6 10 -3 27 4
18 6 41 7 51 0 9 5 17 10 17 5 0 6 3 3 7 -4 3 -1 13 6 21 7 9 7 13 1 9 -7 -4
-10 2 -6 18 2 14 9 25 14 25 5 0 6 -5 2 -12 -5 -7 -3 -8 5 -3 9 5 10 10 2 18
-13 13 -15 51 -2 43 5 -4 8 5 6 19 -1 14 1 25 4 25 4 0 7 10 7 23 2 49 10 83
24 95 8 8 9 11 3 7 -9 -4 -13 1 -13 15 0 12 4 18 10 15 13 -8 8 38 -5 47 -7 5
-6 8 1 8 6 0 9 24 8 60 0 33 2 57 7 55 4 -3 6 3 4 12 -2 10 -4 18 -5 18 -1 0
-3 10 -6 23 -3 16 0 21 8 17 7 -4 5 0 -4 8 -14 11 -15 16 -5 27 9 10 9 11 0 6
-9 -5 -14 1 -15 16 0 13 -2 29 -2 36 -1 7 -7 17 -14 21 -8 5 -13 10 -11 12 5
9 -13 49 -23 49 -5 0 -8 7 -4 15 3 9 -3 19 -15 26 -13 7 -18 16 -14 27 3 9 3
13 -1 9 -4 -4 -18 5 -31 20 -20 20 -22 28 -11 35 10 7 9 8 -4 4 -11 -3 -27 4
-42 19 -14 14 -30 25 -36 25 -5 0 -10 5 -10 10 0 6 -7 10 -15 10 -7 0 -18 7
-23 16 -5 9 -13 15 -18 15 -15 -1 -44 10 -44 17 0 4 -12 9 -27 10 -15 1 -29 6
-32 11 -3 4 -14 7 -23 5 -10 -1 -18 1 -18 6 0 4 -9 6 -20 3 -13 -3 -20 0 -20
8 0 11 -2 11 -10 -1 -7 -11 -10 -11 -10 -2 0 7 -4 10 -10 7 -5 -3 -10 0 -10 7
0 10 -2 10 -9 -1 -6 -10 -10 -10 -16 -1 -6 9 -10 9 -16 -1 -7 -11 -9 -9 -9 5
0 20 0 20 -15 0 -8 -10 -15 -14 -15 -7 0 7 -7 10 -17 6 -11 -4 -14 -3 -9 5 12
20 -2 13 -16 -7z"/>
<path d="M2186 4249 c2 -4 -7 -9 -21 -11 -15 -3 -25 -1 -25 6 0 8 -2 8 -8 0
-4 -6 -18 -15 -31 -19 -18 -5 -22 -4 -15 6 4 8 -4 4 -20 -8 -15 -12 -34 -19
-42 -16 -8 3 -14 0 -14 -7 0 -7 -7 -10 -16 -6 -10 4 -13 2 -8 -6 5 -7 0 -9
-14 -6 -16 4 -22 2 -22 -9 0 -9 -6 -13 -15 -9 -8 3 -14 0 -12 -7 1 -7 -4 -11
-10 -9 -7 1 -13 -3 -13 -10 0 -6 -3 -9 -6 -5 -3 3 -17 -6 -31 -21 -14 -15 -30
-25 -37 -24 -6 2 -8 1 -4 -3 6 -7 -9 -28 -49 -70 -12 -13 -19 -26 -16 -29 4
-3 1 -6 -5 -6 -7 0 -11 -3 -10 -7 1 -5 -6 -24 -17 -43 -20 -37 -22 -41 -24
-66 0 -8 -5 -13 -9 -10 -4 2 -8 -7 -9 -22 -1 -15 -4 -40 -7 -57 -7 -35 -8
-111 -3 -140 3 -11 0 -25 -5 -32 -5 -7 -5 -14 1 -17 6 -4 8 -13 4 -21 -3 -9 1
-15 8 -15 9 0 10 -3 4 -8 -14 -10 -17 -32 -5 -32 6 0 10 -7 10 -16 0 -9 -5
-13 -12 -9 -7 4 -5 0 4 -7 15 -13 15 -15 0 -26 -16 -11 -16 -11 1 -6 11 4 17
1 17 -11 0 -10 -5 -14 -12 -10 -7 4 -5 0 5 -8 20 -16 23 -47 5 -47 -10 0 -10
-2 0 -9 7 -4 19 -29 27 -55 14 -45 14 -47 -3 -35 -16 13 -16 12 1 -7 9 -11 14
-24 10 -27 -3 -4 -1 -7 7 -7 9 0 10 -3 1 -14 -8 -10 -8 -20 4 -42 11 -22 12
-30 2 -36 -8 -5 -9 -8 -1 -8 7 0 15 -7 18 -16 4 -10 2 -13 -7 -8 -8 5 -7 2 2
-9 11 -14 11 -17 0 -17 -9 0 -10 -3 -4 -8 14 -10 18 -42 5 -42 -5 0 -10 -5
-10 -11 0 -5 4 -8 9 -5 5 3 9 -5 9 -19 0 -16 -5 -22 -12 -18 -7 4 -6 1 1 -8
10 -12 10 -18 0 -29 -10 -10 -9 -12 3 -6 8 4 6 0 -4 -8 -11 -9 -15 -16 -8 -16
6 0 9 -10 7 -21 -7 -34 -42 -94 -54 -92 -5 2 -8 -4 -5 -12 5 -11 2 -13 -12 -8
-11 4 -15 3 -11 -4 4 -6 -12 -20 -37 -32 -56 -26 -96 -33 -96 -18 0 8 -3 8 -8
2 -11 -16 -33 -17 -50 -3 -10 9 -13 9 -9 1 5 -8 -2 -11 -24 -11 -30 1 -53 -17
-43 -34 3 -4 0 -8 -5 -8 -6 0 -11 -5 -11 -11 0 -5 4 -8 8 -5 4 2 8 -40 9 -95
1 -72 -2 -97 -10 -93 -7 4 -4 -1 5 -11 9 -10 25 -19 35 -20 10 0 25 -5 32 -10
9 -5 12 -4 8 2 -4 6 0 13 8 17 8 3 17 2 19 -3 3 -4 26 -9 53 -10 26 -1 50 -6
54 -12 3 -6 9 -10 13 -10 20 3 26 0 20 -11 -4 -6 -3 -8 3 -5 14 9 55 -22 47
-35 -4 -6 -2 -8 3 -5 13 8 37 -18 29 -32 -3 -5 1 -12 10 -15 9 -4 14 -13 10
-21 -3 -8 0 -15 6 -15 6 0 9 -3 5 -6 -3 -3 -1 -18 4 -32 9 -23 8 -24 -8 -11
-17 13 -17 13 -1 -7 14 -16 15 -23 5 -34 -7 -7 -7 -10 -1 -7 7 4 12 -3 12 -18
0 -16 -5 -22 -12 -18 -6 4 -5 0 2 -9 16 -19 12 -41 -8 -50 -12 -5 -12 -7 3 -7
15 -1 16 -5 7 -21 -8 -15 -8 -20 2 -20 6 0 3 -7 -8 -16 -10 -8 -13 -12 -5 -8
10 5 11 1 5 -17 -4 -13 -7 -32 -6 -42 0 -9 -3 -15 -8 -12 -4 3 -6 -8 -4 -25 4
-21 1 -29 -8 -27 -7 2 -10 2 -5 0 12 -7 8 -53 -5 -53 -6 0 -8 -3 -5 -7 4 -3 1
-13 -6 -21 -9 -13 -9 -14 1 -8 6 4 12 3 12 -2 0 -15 -26 -33 -35 -24 -5 4 -5
1 -1 -6 4 -7 12 -10 17 -7 5 4 9 2 9 -4 0 -5 -4 -12 -9 -16 -6 -3 -8 -14 -6
-25 2 -11 0 -20 -5 -20 -4 0 -11 -7 -14 -16 -3 -9 -2 -12 5 -9 6 4 8 -4 5 -22
-2 -15 -5 -34 -5 -41 -1 -8 -6 -10 -13 -6 -10 6 -10 4 0 -8 8 -11 9 -18 3 -22
-7 -5 -7 -15 -1 -31 8 -21 6 -25 -8 -25 -10 0 -13 -3 -6 -8 6 -4 13 -17 16
-29 5 -17 2 -23 -10 -23 -11 0 -13 -3 -6 -8 14 -9 26 -54 12 -46 -7 4 -7 0 0
-12 5 -11 8 -29 7 -41 -1 -12 3 -19 8 -16 6 4 8 -3 5 -15 -4 -14 -2 -20 4 -16
6 4 8 -2 6 -12 -3 -11 7 -34 21 -53 13 -19 18 -31 10 -27 -8 4 -5 0 5 -8 11
-9 16 -16 12 -16 -4 0 0 -7 8 -16 9 -8 14 -20 10 -25 -3 -5 0 -8 8 -7 7 2 12
-3 10 -9 -1 -7 5 -13 13 -13 8 0 16 -4 16 -10 1 -5 2 -14 3 -19 0 -5 5 -13 10
-18 5 -5 6 -2 1 7 -4 8 3 4 16 -10 13 -13 23 -28 21 -33 -1 -5 2 -6 8 -2 5 3
10 1 10 -4 0 -6 3 -10 8 -9 4 0 15 -2 25 -7 15 -6 15 -10 5 -24 -12 -14 -11
-15 5 -2 15 12 20 12 33 -5 9 -10 12 -13 9 -6 -6 11 -3 11 13 1 12 -7 19 -16
16 -20 -2 -4 6 -5 18 -1 14 3 19 1 14 -6 -4 -7 1 -10 14 -7 11 2 20 -2 20 -8
0 -7 4 -6 10 3 7 11 10 11 10 2 0 -7 5 -10 10 -7 6 3 10 2 10 -3 0 -5 11 -8
25 -7 14 2 25 0 25 -3 0 -4 15 -8 33 -9 17 -1 51 -3 74 -4 23 -2 39 -7 36 -12
-3 -5 4 -3 15 4 12 7 18 18 14 24 -9 13 -9 37 1 53 5 7 3 12 -3 12 -6 0 -8 5
-5 10 4 6 12 8 18 4 7 -3 4 1 -6 9 -13 11 -15 17 -7 22 9 6 9 10 -1 16 -12 7
-12 9 0 9 11 0 11 3 1 15 -10 12 -9 15 6 16 15 0 16 2 4 7 -16 8 -19 48 -5 72
4 8 5 12 0 8 -4 -4 -17 -3 -28 3 -10 6 -17 7 -14 2 7 -11 -29 -10 -39 0 -4 4
-13 2 -21 -4 -10 -9 -13 -8 -13 0 0 7 -4 10 -9 7 -14 -9 -72 15 -64 27 3 6 1
7 -5 3 -13 -8 -49 9 -72 33 -8 10 -13 12 -10 6 3 -6 -3 -2 -13 9 -10 10 -15
26 -13 33 3 8 2 12 -3 9 -5 -3 -15 1 -22 10 -10 13 -10 17 2 25 10 6 11 9 1 9
-10 0 -12 18 -10 70 1 39 6 70 11 70 4 0 5 5 2 10 -3 6 0 10 7 10 9 0 9 3 -2
10 -10 7 -11 13 -5 17 6 5 10 18 9 30 -1 13 4 23 10 23 6 0 4 5 -4 10 -8 5
-10 10 -5 10 6 0 11 19 13 43 3 54 6 69 14 83 4 6 5 21 3 33 -3 18 -1 22 13
17 15 -5 15 -5 1 6 -16 13 -14 38 5 50 7 5 6 8 -3 8 -10 0 -11 3 -3 13 6 7 8
18 3 25 -11 18 -1 83 13 76 6 -3 3 1 -6 9 -10 8 -15 17 -11 21 11 10 11 106 0
106 -5 0 -4 6 2 13 6 8 8 17 4 21 -8 7 -15 40 -16 74 -1 12 -4 22 -7 22 -4 0
-7 7 -8 15 -1 8 -3 22 -4 30 -1 8 -5 15 -10 15 -5 0 -4 9 2 20 6 11 7 19 3 18
-4 -2 -10 2 -12 7 -2 6 -10 15 -17 20 -7 6 -14 16 -16 24 -2 7 -13 25 -25 39
-13 14 -23 31 -23 37 0 7 -7 16 -16 19 -8 3 -12 11 -9 16 4 6 2 9 -3 8 -13 -4
-53 42 -46 53 3 5 -2 6 -10 3 -11 -4 -16 0 -16 10 0 9 -7 16 -15 16 -10 0 -2
13 22 38 21 20 41 36 45 35 4 -2 7 0 6 5 -4 12 35 51 45 45 6 -4 7 -1 2 7 -4
7 -4 15 1 19 5 3 17 20 26 36 10 17 22 29 27 28 6 -2 8 3 5 11 -3 7 1 20 8 27
7 8 13 20 14 27 1 6 2 19 3 27 0 8 9 15 19 15 10 0 13 3 7 8 -15 10 -11 38 5
34 11 -3 11 0 0 12 -10 13 -10 16 1 16 11 0 11 2 -1 10 -8 5 -10 10 -5 10 6 0
10 16 10 35 -1 20 1 38 5 40 4 2 5 27 4 55 -3 37 0 49 9 45 7 -4 3 1 -7 9 -11
9 -15 16 -9 16 6 0 9 9 5 22 -4 16 -2 19 9 14 8 -4 5 0 -6 9 -17 13 -18 17 -6
25 11 6 12 12 3 22 -7 8 -7 19 -2 28 5 8 5 19 0 25 -5 6 -10 30 -12 55 -2 25
-7 48 -12 52 -6 4 -4 14 5 24 11 15 12 16 0 9 -11 -6 -13 -2 -9 18 3 15 2 24
-2 22 -4 -3 -10 9 -12 25 -3 17 0 30 6 30 8 0 8 2 0 8 -15 10 -25 42 -13 42 6
0 6 6 0 18 -5 9 -9 19 -9 22 -1 3 -4 13 -8 24 -4 11 -2 21 7 27 8 5 9 9 3 9
-7 0 -14 18 -16 40 -3 31 0 40 12 40 12 0 12 2 2 9 -11 7 -10 16 7 52 11 24
20 41 21 37 0 -5 9 1 20 12 12 12 26 18 32 14 6 -4 8 -3 5 3 -4 6 6 16 21 22
15 7 27 11 28 9 0 -1 8 3 17 10 11 9 17 10 22 2 5 -8 11 -8 19 -1 7 6 17 7 21
3 5 -4 5 -2 2 4 -5 8 5 13 27 16 19 2 33 1 31 -3 -3 -3 7 -4 20 -1 14 2 22 8
20 12 -3 5 -1 11 5 15 5 3 10 11 10 16 0 6 -3 8 -7 6 -5 -3 -8 6 -8 19 0 13 4
24 9 24 5 0 3 7 -4 15 -7 9 -8 15 -2 15 11 0 11 18 -1 37 -4 6 -2 15 4 19 8 4
7 9 -2 15 -12 7 -12 9 0 9 10 0 11 3 2 14 -9 11 -9 15 1 19 10 4 10 6 -1 6
-11 1 -11 4 -1 16 10 12 9 15 -6 16 -101 4 -132 3 -128 -2z m14 -273 c0 -3 -4
-8 -10 -11 -5 -3 -10 -1 -10 4 0 6 5 11 10 11 6 0 10 -2 10 -4z"/>
<path d="M2770 4199 c0 -5 5 -7 10 -4 6 3 10 8 10 11 0 2 -4 4 -10 4 -5 0 -10
-5 -10 -11z"/>
<path d="M3095 3840 c3 -5 8 -10 11 -10 2 0 4 5 4 10 0 6 -5 10 -11 10 -5 0
-7 -4 -4 -10z"/>
<path d="M3455 3640 c-3 -5 -1 -10 4 -10 6 0 11 5 11 10 0 6 -2 10 -4 10 -3 0
-8 -4 -11 -10z"/>
<path d="M3320 1100 c-9 -6 -10 -10 -3 -10 6 0 15 5 18 10 8 12 4 12 -15 0z"/>
</g>
</svg>
